# AST/ASF file generated using VICON BodyLanguage
# -----------------------------------------------
:version 1.10
:name VICON
:units
  mass 1.0
  length 0.45
  angle deg
:documentation
   .ast/.asf automatically generated from VICON data using
   VICON BodyBuilder and BodyLanguage model FoxedUp or BRILLIANT.MOD
:root
   order TX TY TZ RX RY RZ
   axis XYZ
   position 0 0 0  
   orientation 0 0 0 
:bonedata
  begin
     id 1 
     name lhipjoint
     direction 0.570549 -0.739093 0.358072 
     length 2.41801 
     axis 0 0 0  XYZ
  end
  begin
     id 2 
     name lfemur
     direction 0.34202 -0.939693 0  
     length 7.44434  
     axis 0 0 20  XYZ
    dof rx ry rz
    limits (-160.0 20.0)
           (-70.0 70.0)
           (-60.0 70.0)
  end
  begin
     id 3 
     name ltibia
     direction 0.34202 -0.939693 0   
     length 7.60047   
     axis 0 0 20   XYZ
    dof rx
    limits (-10.0 170.0)
  end
  begin
     id 4 
     name lfoot
     direction 0.0909041 -0.249757 0.964032   
     length 2.03437   
     axis -90 7.62852e-016 20   XYZ
    dof rx rz
    limits (-45.0 90.0)
           (-70.0 20.0)
  end
  begin
     id 5 
     name ltoes
     direction 1.53547e-011 -4.2174e-011 1   
     length 1.02054   
     axis -90 7.62852e-016 20   XYZ
    dof rx
    limits (-90.0 20.0)
  end
  begin
     id 6 
     name rhipjoint
     direction -0.558096 -0.746754 0.361784   
     length 2.3932  
     axis 0 0 0  XYZ 
  end
  begin
     id 7 
     name rfemur
     direction -0.34202 -0.939693 0   
     length 7.3886   
     axis 0 0 -20   XYZ
    dof rx ry rz
    limits (-160.0 20.0)
           (-70.0 70.0)
           (-70.0 60.0)
  end
  begin
     id 8 
     name rtibia
     direction -0.34202 -0.939693 0   
     length 7.4839   
     axis 0 0 -20   XYZ
    dof rx
    limits (-10.0 170.0)
 end
 begin
     id 9 
     name rfoot
     direction -0.114619 -0.314914 0.942174   
     length 2.25127  
     axis -90 -7.62852e-016 -20   XYZ
    dof rx rz
    limits (-45.0 90.0)
           (-20.0 70.0)
  end
  begin
     id 10 
     name rtoes
     direction -1.53518e-011 -4.21881e-011 1   
     length 1.11821   
     axis -90 -7.62852e-016 -20   XYZ
    dof rx
    limits (-90.0 20.0)
  end
  begin
     id 11 
     name lowerback
     direction -0.00902269 0.996426 -0.0839821   
     length 2.25052   
     axis 0 0 0   XYZ
    dof rx ry rz
    limits (-20.0 45.0)
           (-30.0 30.0)
           (-30.0 30.0)
  end
  begin
     id 12 
     name upperback
     direction 0.0370973 0.999169 -0.0168941   
     length 2.24876   
     axis 0 0 0   XYZ
    dof rx ry rz
    limits (-20.0 45.0)
           (-30.0 30.0)
           (-30.0 30.0)
  end
  begin
     id 13 
     name thorax
     direction 0.0402726 0.998931 0.0227027   
     length 2.26408   
     axis 0 0 0   XYZ
    dof rx ry rz
    limits (-20.0 45.0)
           (-30.0 30.0)
           (-30.0 30.0)
  end
  begin
     id 14 
     name lowerneck
     direction -0.0733697 0.98508 0.155675   
     length 1.58204   
     axis 0 0 0   XYZ
    dof rx ry rz
    limits (-20.0 45.0)
           (-30.0 30.0)
           (-30.0 30.0)
  end
  begin
     id 15 
     name upperneck
     direction 0.0426554 0.993501 -0.105526   
     length 1.61222   
     axis 0 0 0   XYZ
    dof rx ry rz
    limits (-20.0 45.0)
           (-30.0 30.0)
           (-30.0 30.0)
  end
  begin
     id 16
     name head
     direction 0.020792 0.998384 -0.0528868  
     length 1.61527  
     axis 0 0 0   XYZ
    dof rx ry rz
    limits (-20.0 45.0)
           (-30.0 30.0)
           (-30.0 30.0)
  end
  begin
     id 17 
     name lclavicle
     direction 0.967109 0.155462 -0.201325  
     length 3.59357  
     axis 0 0 0   XYZ
    dof ry rz
    limits (-20.0 10.0)
           (0.0 20.0)
  end
  begin
     id 18 
     name lhumerus
     direction 1 -4.48968e-011 2.38195e-027   
     length 5.38154   
     axis 180 -30 -90   XYZ
    dof rx ry rz
    limits (-60.0 90.0)
           (-90.0 90.0)
           (-90.0 90.0)
  end
  begin
     id 19
     name lradius
     direction 1 -4.48961e-011 4.85371e-027   
     length 3.33312   
     axis 180 -30 -90   XYZ
    dof rx
    limits (-10.0 170.0)
  end
  begin
     id 20
     name lwrist
     direction 1 -4.48961e-011 4.76515e-027   
     length 1.66656   
     axis -3.27502e-015 90 90   XYZ
    dof ry
    limits (-180.0 0.0)
 end
  begin
     id 21 
     name lhand
     direction 1 -4.48951e-011 9.53074e-027   
     length 0.710789   
     axis -6.08098e-015 90 90   XYZ
    dof rx rz
    limits (-90.0 90.0)
           (-45.0 45.0)
  end
  begin
     id 22 
     name lfingers
     direction 1 -4.48953e-011 1.90613e-026   
     length 0.573057   
     axis -1.21619e-014 90 90   XYZ
    dof rx
    limits (0.0 90.0)
  end
  begin
     id 23
     name lthumb
     direction 0.707107 -6.34973e-011 0.707107   
     length 0.822798   
     axis -90 45 -9.86923e-015   XYZ
    dof rx rz
    limits (-45.0 45.0)
           (-45.0 45.0)
  end
  begin
     id 24 
     name rclavicle
     direction -0.9585 0.265289 -0.104398   
     length 3.42039  
     axis 0 0 0   XYZ 
    dof ry rz
    limits (-10.0 20.0)
           (-20.0 0.0)
  end
  begin
     id 25 
     name rhumerus
     direction -1 -4.48977e-011 2.21478e-027  
     length 5.16954   
     axis 180 30 90   XYZ
    dof rx ry rz
    limits (-90.0 60.0)
           (-90.0 90.0)
           (-90.0 90.0)
  end
  begin
     id 26 
     name rradius
     direction -1 -4.48967e-011 5.63677e-027   
     length 3.38287   
     axis 180 30 90   XYZ
    dof rx
    limits (-10.0 170.0)
  end
  begin
     id 27 
     name rwrist
     direction -1 -4.48967e-011 4.76501e-027   
     length 1.69144   
     axis -3.27502e-015 -90 -90   XYZ
    dof ry
    limits (-180.0 0.0)
  end
  begin
     id 28
     name rhand
     direction -1 -4.48902e-011 9.53292e-027   
     length 0.817967   
     axis -6.08098e-015 -90 -90   XYZ
    dof rx rz
    limits (-90.0 90.0)
           (-45.0 45.0)
  end
  begin
     id 29
     name rfingers
     direction -1 -4.49012e-011 1.90561e-026   
     length 0.659466   
     axis -1.21619e-014 -90 -90   XYZ
    dof rx
    limits (0.0 90.0)
  end
  begin
     id 30
     name rthumb
     direction -0.707107 -6.34944e-011 0.707107   
     length 0.946865   
     axis -90 -45 9.86923e-015   XYZ
    dof rx rz
    limits (-45.0 45.0)
           (-45.0 45.0)
  end
:hierarchy
  begin
    root lhipjoint rhipjoint lowerback
    lhipjoint lfemur
    lfemur ltibia
    ltibia lfoot
    lfoot ltoes
    rhipjoint rfemur
    rfemur rtibia
    rtibia rfoot
    rfoot rtoes
    lowerback upperback
    upperback thorax
    thorax lowerneck lclavicle rclavicle
    lowerneck upperneck
    upperneck head
    lclavicle lhumerus
    lhumerus lradius
    lradius lwrist
    lwrist lhand lthumb
    lhand lfingers
    rclavicle rhumerus
    rhumerus rradius
    rradius rwrist
    rwrist rhand rthumb
    rhand rfingers
  end

#!OML:ASF F:\twosubjects\two\wednesday\Session 1\Justin1.ASF
:FULLY-SPECIFIED
:DEGREES
162
root 15.074 17.8724 0.700873 -179.47 5.74 -182.808
lowerback 1.37568 -2.35499 -4.64591
upperback 5.329 -2.86512 2.20859
thorax 5.12276 -1.56637 4.82132
lowerneck -13.5028 -1.09272 -14.1882
upperneck 38.5418 7.79731 -0.0863014
head 15.6806 2.64483 4.14057
rclavicle -9.93923e-015 1.03368e-014
rhumerus -14.2658 -4.57422 -81.9611
rradius 32.1405
rwrist -10.7309
rhand -12.431 19.9053
rfingers 7.12502
rthumb 13.6416 -9.62772
lclavicle -9.93923e-015 1.03368e-014
lhumerus -44.9948 -38.7842 88.7751
lradius 47.2129
lwrist -0.399277
lhand 0.277807 34.9915
lfingers 7.12502
lthumb 25.8564 63.2537
rfemur -24.1957 -2.57104 16.3461
rtibia 64.9739
rfoot -7.55374 -10.9872
rtoes 7.00648
lfemur -6.97466 2.87067 -26.9096
ltibia 24.5332
lfoot -13.2093 -2.26038
ltoes 2.7497
163
root 15.0739 17.8614 0.565201 -179.451 5.01825 -182.853
lowerback 1.50501 -2.58686 -4.76348
upperback 5.29998 -3.17757 2.18771
thorax 5.06382 -1.72448 4.85818
lowerneck -13.5615 -1.10282 -14.2026
upperneck 38.6134 7.67924 0.180379
head 15.7145 2.61773 4.2427
rclavicle 8.54774e-015 3.18055e-015
rhumerus -14.9706 -4.90521 -81.8731
rradius 31.9897
rwrist -10.7085
rhand -12.7451 19.4516
rfingers 7.12502
rthumb 13.3389 -10.1015
lclavicle 8.54774e-015 3.18055e-015
lhumerus -44.7638 -38.74 88.6226
lradius 47.0476
lwrist -0.587035
lhand 0.591807 34.424
lfingers 7.12502
lthumb 26.1571 62.6421
rfemur -24.9993 -2.9866 16.433
rtibia 63.8381
rfoot -8.12186 -10.7911
rtoes 5.93051
lfemur -6.47198 2.60885 -26.971
ltibia 24.6707
lfoot -13.7276 -2.58001
ltoes 2.83064
164
root 15.0741 17.8497 0.427144 -179.402 4.46112 -183.234
lowerback 1.63347 -2.77594 -5.29521
upperback 5.24031 -3.43337 2.1589
thorax 4.99738 -1.87405 5.12372
lowerneck -13.475 -1.10068 -14.2652
upperneck 38.3818 7.57212 0.214266
head 15.5784 2.57221 4.23008
rclavicle 1.78906e-015 -3.97569e-015
rhumerus -15.535 -4.85508 -81.6871
rradius 31.7505
rwrist -10.6781
rhand -12.6278 19.887
rfingers 7.12502
rthumb 13.4519 -9.65863
lclavicle 1.78906e-015 -3.97569e-015
lhumerus -44.5458 -38.7022 88.5546
lradius 47.0758
lwrist -0.527137
lhand 1.13455 34.4016
lfingers 7.12502
lthumb 26.6766 62.5416
rfemur -25.8604 -3.31168 16.1324
rtibia 62.5999
rfoot -8.67827 -10.3521
rtoes 5.76958
lfemur -6.08262 2.67 -27.4788
ltibia 24.7323
lfoot -13.9706 -2.58749
ltoes -2.39299
165
root 15.0783 17.8307 0.290758 -179.278 4.21554 -183.59
lowerback 1.64749 -2.67268 -5.83377
upperback 4.8431 -3.33188 2.00672
thorax 4.58251 -1.83807 5.27933
lowerneck -12.2895 -1.19576 -13.5769
upperneck 38.1734 7.17318 -0.0855247
head 15.261 2.53983 3.88216
rclavicle 3.10104e-014 -4.37326e-014
rhumerus -17.0361 -5.59025 -81.4318
rradius 31.5871
rwrist -10.6503
rhand -12.037 20.1952
rfingers 7.12502
rthumb 14.0213 -9.3119
lclavicle 3.10104e-014 -4.37326e-014
lhumerus -45.2919 -39.3392 89.0191
lradius 47.1681
lwrist -0.401969
lhand 1.45984 34.44
lfingers 7.12502
lthumb 26.9879 62.5323
rfemur -26.7634 -3.19353 15.8999
rtibia 61.2254
rfoot -9.29764 -10.1767
rtoes 5.69931
lfemur -5.74925 2.68449 -27.9291
ltibia 24.7056
lfoot -14.0836 -2.55486
ltoes -3.94509
166
root 15.0787 17.811 0.151282 -179.213 3.77421 -183.773
lowerback 1.64347 -2.47082 -6.08708
upperback 4.34802 -3.10717 1.76522
thorax 4.03074 -1.71928 5.18587
lowerneck -10.4797 -1.4237 -12.4971
upperneck 37.9677 6.43771 -0.346416
head 14.8231 2.46038 3.42706
rclavicle -1.92821e-014 -4.77083e-015
rhumerus -19.0614 -6.9664 -81.1369
rradius 31.5056
rwrist -10.5453
rhand -11.7543 19.8603
rfingers 7.12502
rthumb 14.2937 -9.62773
lclavicle -1.92821e-014 -4.77083e-015
lhumerus -46.4993 -40.6158 89.7725
lradius 47.1944
lwrist -0.280781
lhand 1.21672 34.1895
lfingers 7.12502
lthumb 26.7553 62.3176
rfemur -27.3618 -3.25019 15.8272
rtibia 59.6439
rfoot -9.96346 -10.1347
rtoes 5.33917
lfemur -5.25492 2.64586 -28.1319
ltibia 24.6285
lfoot -14.6042 -2.71353
ltoes -4.63314
167
root 15.0737 17.7959 0.0177384 -179.157 3.3012 -183.861
lowerback 1.60784 -2.47885 -6.13178
upperback 4.26314 -3.12036 1.59492
thorax 3.95518 -1.72237 5.03204
lowerneck -9.72187 -1.51269 -11.6385
upperneck 37.6265 6.08585 -0.785438
head 14.5389 2.41639 3.01435
rclavicle 3.46879e-014 -7.95139e-016
rhumerus -20.0099 -7.77498 -81.0748
rradius 31.2893
rwrist -9.79877
rhand -11.922 19.5369
rfingers 7.12502
rthumb 14.1322 -9.96246
lclavicle 3.46879e-014 -7.95139e-016
lhumerus -46.5308 -41.1704 89.6453
lradius 47.2497
lwrist -0.502906
lhand 1.38369 33.9933
lfingers 7.12502
lthumb 26.915 62.0969
rfemur -27.9017 -3.36317 15.8295
rtibia 57.8111
rfoot -10.4163 -10.1225
rtoes 4.61078
lfemur -4.75037 2.74677 -28.2053
ltibia 24.5894
lfoot -15.3683 -2.92744
ltoes -6.28277
168
root 15.0749 17.7822 -0.112925 -178.985 3.15302 -183.929
lowerback 1.5281 -2.44293 -6.36091
upperback 4.18839 -3.07473 1.57809
thorax 3.9294 -1.70777 5.14318
lowerneck -9.26645 -1.59536 -11.3871
upperneck 37.3171 5.76476 -0.833614
head 14.3082 2.32607 2.87979
rclavicle 1.50082e-014 -1.11319e-014
rhumerus -20.8313 -8.27104 -80.8768
rradius 31.1859
rwrist -9.42283
rhand -11.6385 19.6894
rfingers 7.12502
rthumb 14.4054 -9.79068
lclavicle 1.50082e-014 -1.11319e-014
lhumerus -46.3207 -41.1674 89.5312
lradius 47.2217
lwrist -0.882935
lhand 1.75287 33.8983
lfingers 7.12502
lthumb 27.2682 61.9468
rfemur -28.5492 -3.12101 15.8807
rtibia 55.7608
rfoot -10.6577 -10.3747
rtoes 4.64019
lfemur -4.37392 2.88682 -28.2661
ltibia 24.492
lfoot -15.9125 -2.98266
ltoes -5.67429
169
root 15.0777 17.774 -0.246644 -178.735 2.8427 -183.768
lowerback 1.49994 -2.44725 -6.32521
upperback 4.00917 -3.09804 1.60438
thorax 3.75877 -1.71443 5.15238
lowerneck -8.82308 -1.72309 -11.4459
upperneck 37.1226 5.3098 -0.445149
head 14.1172 2.18463 2.9637
rclavicle -1.25234e-014 7.95139e-015
rhumerus -21.8417 -8.80132 -80.6666
rradius 31.0634
rwrist -9.5375
rhand -11.4317 19.5769
rfingers 7.12502
rthumb 14.6046 -9.88888
lclavicle -1.25234e-014 7.95139e-015
lhumerus -46.4464 -41.4484 89.7105
lradius 47.1708
lwrist -0.738671
lhand 1.40042 33.966
lfingers 7.12502
lthumb 26.931 62.067
rfemur -29.0709 -3.02765 16.166
rtibia 53.5123
rfoot -10.7346 -10.6146
rtoes 4.18711
lfemur -4.00786 2.8962 -28.0822
ltibia 24.2147
lfoot -16.1906 -3.32199
ltoes -5.51895
170
root 15.0731 17.772 -0.384347 -178.533 2.6168 -183.834
lowerback 1.49068 -2.59619 -6.36444
upperback 3.99278 -3.29715 1.58036
thorax 3.77577 -1.81535 5.14253
lowerneck -9.22047 -1.68067 -11.4393
upperneck 37.2358 5.40517 -0.419352
head 14.2508 2.20435 2.99877
rclavicle 2.14687e-014 0
rhumerus -22.2843 -8.93178 -80.6348
rradius 30.7013
rwrist -9.4845
rhand -11.7779 19.2184
rfingers 7.12502
rthumb 14.271 -10.2713
lclavicle 2.14687e-014 0
lhumerus -46.1837 -41.4164 89.5145
lradius 47.1385
lwrist -0.535236
lhand 0.775844 34.0051
lfingers 7.12502
lthumb 26.3333 62.197
rfemur -29.4955 -2.85513 16.0851
rtibia 51.0952
rfoot -10.9453 -10.6262
rtoes 4.34849
lfemur -3.5221 2.81531 -28.1892
ltibia 23.8281
lfoot -16.4298 -3.46113
ltoes -6.43942
171
root 15.0764 17.7726 -0.527353 -178.398 2.62173 -184.28
lowerback 1.55738 -2.6535 -7.03315
upperback 3.89636 -3.3839 1.60795
thorax 3.6987 -1.87916 5.55087
lowerneck -9.36178 -1.63222 -11.6379
upperneck 37.3077 5.57197 -0.429548
head 14.3082 2.24262 3.05861
rclavicle -1.5704e-014 -9.54166e-015
rhumerus -22.8728 -9.07719 -80.2702
rradius 30.3054
rwrist -9.58471
rhand -11.7251 19.6506
rfingers 7.12502
rthumb 14.3219 -9.83542
lclavicle -1.5704e-014 -9.54166e-015
lhumerus -46.1446 -41.1021 89.5604
lradius 47.2816
lwrist -0.589384
lhand 0.666541 34.0417
lfingers 7.12502
lthumb 26.2286 62.2491
rfemur -29.8147 -2.36918 15.5711
rtibia 48.5091
rfoot -11.2435 -10.8862
rtoes 5.06085
lfemur -2.93489 2.87558 -28.6862
ltibia 23.3492
lfoot -16.4794 -3.19232
ltoes -6.41488
172
root 15.0862 17.7733 -0.66376 -178.159 2.46176 -184.333
lowerback 1.55877 -2.79545 -7.2336
upperback 3.89675 -3.57458 1.69498
thorax 3.74895 -1.98476 5.74877
lowerneck -9.61436 -1.52349 -11.8417
upperneck 37.186 5.73205 -0.388983
head 14.2924 2.26991 3.12895
rclavicle 1.63003e-014 3.97569e-015
rhumerus -23.203 -9.11118 -80.1377
rradius 29.9235
rwrist -9.40379
rhand -12.3982 19.4793
rfingers 7.12502
rthumb 13.6732 -10.0516
lclavicle 1.63003e-014 3.97569e-015
lhumerus -45.7859 -41.016 89.3796
lradius 47.389
lwrist -0.371696
lhand 1.11238 34.2159
lfingers 7.12502
lthumb 26.6554 62.3592
rfemur -30.1304 -1.94053 15.5812
rtibia 45.7462
rfoot -10.9931 -11.4998
rtoes 4.65445
lfemur -2.42465 2.91021 -28.7099
ltibia 22.7405
lfoot -16.3364 -3.15908
ltoes -6.25673
173
root 15.0882 17.7702 -0.799452 -177.789 2.26619 -184.135
lowerback 1.27248 -2.97462 -6.96358
upperback 4.05996 -3.78532 1.76579
thorax 4.10056 -2.09613 5.64357
lowerneck -10.3137 -1.41519 -11.8394
upperneck 37.1671 5.98908 -0.566476
head 14.4343 2.31389 3.10511
rclavicle -4.76089e-014 3.02153e-014
rhumerus -23.1797 -8.98431 -80.2316
rradius 29.5615
rwrist -8.99627
rhand -13.7528 18.0599
rfingers 7.12502
rthumb 12.3674 -11.5543
lclavicle -4.76089e-014 3.02153e-014
lhumerus -44.9644 -40.962 88.8654
lradius 47.399
lwrist -0.325495
lhand 1.38816 34.3631
lfingers 7.12502
lthumb 26.9193 62.4659
rfemur -30.4916 -1.49239 15.8102
rtibia 42.848
rfoot -10.6326 -12.0414
rtoes 5.17572
lfemur -1.99323 2.87994 -28.5164
ltibia 22.0815
lfoot -16.2626 -3.17366
ltoes -5.31364
174
root 15.0876 17.7612 -0.941756 -177.507 2.01184 -184.214
lowerback 1.07619 -3.09679 -7.0458
upperback 4.03498 -3.94066 1.79765
thorax 4.21857 -2.18274 5.70649
lowerneck -10.4487 -1.40179 -11.9804
upperneck 37.2406 6.05545 -0.498979
head 14.4912 2.32369 3.17277
rclavicle 1.40143e-014 5.56597e-015
rhumerus -23.5453 -9.7246 -79.8232
rradius 28.8014
rwrist -8.1952
rhand -13.1548 18.4101
rfingers 7.12502
rthumb 12.944 -11.1684
lclavicle 1.40143e-014 5.56597e-015
lhumerus -44.789 -40.8081 88.7521
lradius 47.6077
lwrist -0.536583
lhand 1.07789 34.4633
lfingers 7.12502
lthumb 26.6224 62.6116
rfemur -30.6131 -0.896186 15.5828
rtibia 39.8246
rfoot -10.3139 -12.5417
rtoes 6.61049
lfemur -1.45347 2.97437 -28.618
ltibia 21.4537
lfoot -16.2645 -3.10379
ltoes -4.73784
175
root 15.0911 17.7559 -1.08324 -177.355 1.80929 -184.32
lowerback 1.05281 -3.08618 -7.15342
upperback 3.84372 -3.94055 1.70427
thorax 4.03063 -2.17817 5.67278
lowerneck -9.75763 -1.42808 -11.7646
upperneck 37.1001 5.85583 -0.448705
head 14.2779 2.31384 3.10563
rclavicle -1.23246e-014 7.15625e-015
rhumerus -24.511 -11.1457 -79.2363
rradius 27.9909
rwrist -7.29576
rhand -11.7097 19.8736
rfingers 7.12502
rthumb 14.3368 -9.61133
lclavicle -1.23246e-014 7.15625e-015
lhumerus -45.2029 -41.0983 88.9469
lradius 47.773
lwrist -0.59614
lhand 0.70027 34.3036
lfingers 7.12502
lthumb 26.2609 62.5063
rfemur -30.5255 -0.0758677 15.2354
rtibia 36.7206
rfoot -9.79268 -13.1583
rtoes 9.47053
lfemur -0.753368 3.30863 -28.689
ltibia 20.7792
lfoot -16.2847 -3.23946
ltoes -5.31765
